<?xml version="1.0" encoding="utf-8"?>
<!-- Generator: Adobe Illustrator 27.5.0, SVG Export Plug-In . SVG Version: 6.00 Build 0)  -->
<svg version="1.1" id="Layer_1" xmlns="http://www.w3.org/2000/svg" xmlns:xlink="http://www.w3.org/1999/xlink" x="0px" y="0px"
	 viewBox="0 0 96.6 93" style="enable-background:new 0 0 96.6 93;" xml:space="preserve">
<style type="text/css">
	.st0{fill:#172B54;}
	.st1{fill:#FFFFFF;}
</style>
<g>
	<path class="st0" d="M93.6,93H3c-1.6,0-3-1.3-3-2.9V3c0-1.6,1.3-3,3-3h90.7c1.6,0,2.9,1.3,2.9,3V90C96.6,91.6,95.3,93,93.6,93z"/>
	<path id="path12_00000180365295181189631510000006308079761818781085_" class="st1" d="M39.4,61V64h10.3h10.3V61l0,0
		c0-1.6-1.3-2.9-2.9-2.9h-7.3H39.4V61L39.4,61z"/>
	<path id="path12_00000144298258171970107730000013484281139574202298_" class="st1" d="M7.6,61L7.6,61c0,1.6,1.3,2.9,3,2.9h7.3
		h10.3V61v-2.9H17.9H7.6V61L7.6,61z"/>
	<path id="path12_00000072252116538141714480000000366347083365345193_" class="st1" d="M33.8,85.5h2.9V61V39.5c0-1.6-1.3-2.9-3-2.9
		l0,0h-3V61v21.5C30.8,84.2,32.1,85.5,33.8,85.5L33.8,85.5L33.8,85.5z"/>
	<path id="path12_00000148649150610672051220000017620528428599014546_" class="st1" d="M68.4,32v3h10.3H89v-3l0,0
		c0-1.6-1.3-3-2.9-3h-7.3H68.4V32L68.4,32z"/>
	<path id="path12_00000006704968936370431140000002279088952173115530_" class="st1" d="M36.7,32L36.7,32c0,1.6,1.3,3,2.9,3H47h10.3
		v-3v-3H47H36.7V32L36.7,32z"/>
	<path id="path12_00000031926599284021563610000015001718596618982528_" class="st1" d="M62.8,56.4h2.9V31.9V10.4c0-1.6-1.3-3-2.9-3
		l0,0h-2.9v24.5v21.5C59.9,55.1,61.2,56.4,62.8,56.4L62.8,56.4L62.8,56.4z"/>
</g>
</svg>
