<?xml version="1.0" encoding="utf-8"?>
<!-- Generator: Adobe Illustrator 27.5.0, SVG Export Plug-In . SVG Version: 6.00 Build 0)  -->
<svg version="1.1" id="Layer_1" xmlns="http://www.w3.org/2000/svg" xmlns:xlink="http://www.w3.org/1999/xlink" x="0px" y="0px"
	 viewBox="0 0 156 156" style="enable-background:new 0 0 156 156;" xml:space="preserve">
<style type="text/css">
	.st0{fill:#172B54;}
	.st1{fill:#FFFFFF;}
</style>
<g>
	<path class="st0" d="M123.35,124.48h-90.7c-1.63,0-2.95-1.32-2.95-2.95V34.47c0-1.63,1.32-2.95,2.95-2.95h90.7
		c1.63,0,2.95,1.32,2.95,2.95v87.06C126.3,123.16,124.98,124.48,123.35,124.48z"/>
	<path id="path12_00000180365295181189631510000006308079761818781085_" class="st1" d="M69.08,92.56v2.95h10.26h10.26v-2.95l0,0
		c0-1.63-1.32-2.95-2.95-2.95h-7.31H69.08V92.56L69.08,92.56z"/>
	<path id="path12_00000144298258171970107730000013484281139574202298_" class="st1" d="M37.33,92.56L37.33,92.56
		c0,1.63,1.32,2.95,2.95,2.95h7.31h10.26v-2.95v-2.95H47.59H37.33V92.56L37.33,92.56z"/>
	<path id="path12_00000072252116538141714480000000366347083365345193_" class="st1" d="M63.46,117.02h2.95V92.54V71
		c0-1.63-1.32-2.95-2.95-2.95h0h-2.95v24.48v21.53C60.51,115.7,61.83,117.02,63.46,117.02L63.46,117.02L63.46,117.02z"/>
	<path id="path12_00000148649150610672051220000017620528428599014546_" class="st1" d="M98.15,63.48v2.95h10.26h10.26v-2.95v0
		c0-1.63-1.32-2.95-2.95-2.95h-7.31H98.15V63.48L98.15,63.48z"/>
	<path id="path12_00000006704968936370431140000002279088952173115530_" class="st1" d="M66.41,63.48L66.41,63.48
		c0,1.63,1.32,2.95,2.95,2.95h7.31h10.26v-2.95v-2.95H76.67H66.41V63.48L66.41,63.48z"/>
	<path id="path12_00000031926599284021563610000015001718596618982528_" class="st1" d="M92.54,87.94h2.95V63.46V41.93
		c0-1.63-1.32-2.95-2.95-2.95l0,0h-2.95v24.48V85C89.59,86.62,90.91,87.94,92.54,87.94L92.54,87.94L92.54,87.94z"/>
</g>
</svg>
