<?xml version="1.0" encoding="utf-8"?>
<!-- Generator: Adobe Illustrator 27.5.0, SVG Export Plug-In . SVG Version: 6.00 Build 0)  -->
<svg version="1.1" id="Layer_1" xmlns="http://www.w3.org/2000/svg" xmlns:xlink="http://www.w3.org/1999/xlink" x="0px" y="0px"
	 viewBox="0 0 81.3 78" style="enable-background:new 0 0 81.3 78;" xml:space="preserve">
<style type="text/css">
	.st0{fill:#172B54;}
</style>
<g>
	<path id="path12_00000119112786274811541250000012439880139205463725_" class="st0" d="M31.8,53.6v2.9H42h10.3v-2.9l0,0
		c0-1.6-1.3-2.9-2.9-2.9H42H31.8V53.6L31.8,53.6z"/>
	<path id="path12_00000086652654414504593030000000263115172409414544_" class="st0" d="M0,53.6L0,53.6c0,1.6,1.3,2.9,3,2.9h7.3
		h10.3v-2.9v-2.9H10.3H0V53.6L0,53.6z"/>
	<path id="path12_00000133527777935777570950000011117105098745716114_" class="st0" d="M26.1,78h2.9V53.6V32c0-1.6-1.3-2.9-3-2.9
		l0,0h-3v24.5v21.5C23.2,76.7,24.5,78,26.1,78L26.1,78L26.1,78z"/>
	<path id="path12_00000121958505661735045330000002828656114147469989_" class="st0" d="M60.8,24.5v3h10.3h10.3v-3l0,0
		c0-1.6-1.3-3-2.9-3h-7.3H60.8V24.5L60.8,24.5z"/>
	<path id="path12_00000114779016512572345940000016484726558255263384_" class="st0" d="M29.1,24.5L29.1,24.5c0,1.6,1.3,3,2.9,3h7.3
		h10.3v-3v-3H39.3H29.1V24.5L29.1,24.5z"/>
	<path id="path12_00000160186531713885782820000001381568838290465684_" class="st0" d="M55.2,49h2.9V24.5V3c0-1.6-1.3-3-2.9-3l0,0
		h-2.9v24.5V46C52.3,47.6,53.6,49,55.2,49L55.2,49L55.2,49z"/>
</g>
</svg>
