<?xml version="1.0" encoding="utf-8"?>
<!-- Generator: Adobe Illustrator 27.5.0, SVG Export Plug-In . SVG Version: 6.00 Build 0)  -->
<svg version="1.1" id="Layer_1" xmlns="http://www.w3.org/2000/svg" xmlns:xlink="http://www.w3.org/1999/xlink" x="0px" y="0px"
	 viewBox="0 0 156 156" style="enable-background:new 0 0 156 156;" xml:space="preserve">
<style type="text/css">
	.st0{fill:#172B54;}
</style>
<g>
	<path id="path12_00000119112786274811541250000012439880139205463725_" class="st0" d="M69.08,92.56v2.95h10.26h10.26v-2.95l0,0
		c0-1.63-1.32-2.95-2.95-2.95h-7.31H69.08V92.56L69.08,92.56z"/>
	<path id="path12_00000086652654414504593030000000263115172409414544_" class="st0" d="M37.33,92.56L37.33,92.56
		c0,1.63,1.32,2.95,2.95,2.95h7.31h10.26v-2.95v-2.95H47.59H37.33V92.56L37.33,92.56z"/>
	<path id="path12_00000133527777935777570950000011117105098745716114_" class="st0" d="M63.46,117.02h2.95V92.54V71
		c0-1.63-1.32-2.95-2.95-2.95h0h-2.95v24.48v21.53C60.51,115.7,61.83,117.02,63.46,117.02L63.46,117.02L63.46,117.02z"/>
	<path id="path12_00000121958505661735045330000002828656114147469989_" class="st0" d="M98.15,63.48v2.95h10.26h10.26v-2.95v0
		c0-1.63-1.32-2.95-2.95-2.95h-7.31H98.15V63.48L98.15,63.48z"/>
	<path id="path12_00000114779016512572345940000016484726558255263384_" class="st0" d="M66.41,63.48L66.41,63.48
		c0,1.63,1.32,2.95,2.95,2.95h7.31h10.26v-2.95v-2.95H76.67H66.41V63.48L66.41,63.48z"/>
	<path id="path12_00000160186531713885782820000001381568838290465684_" class="st0" d="M92.54,87.94h2.95V63.46V41.93
		c0-1.63-1.32-2.95-2.95-2.95l0,0h-2.95v24.48V85C89.59,86.62,90.91,87.94,92.54,87.94L92.54,87.94L92.54,87.94z"/>
</g>
</svg>
