<?xml version="1.0" encoding="utf-8"?>
<!-- Generator: Adobe Illustrator 27.5.0, SVG Export Plug-In . SVG Version: 6.00 Build 0)  -->
<svg version="1.1" id="Layer_1" xmlns="http://www.w3.org/2000/svg" xmlns:xlink="http://www.w3.org/1999/xlink" x="0px" y="0px"
	 viewBox="0 0 312.1 312.1" style="enable-background:new 0 0 312.1 312.1;" xml:space="preserve">
<style type="text/css">
	.st0{fill:#FFFFFF;stroke:#000000;stroke-width:2;stroke-miterlimit:10;}
	.st1{fill:#FFFFFF;stroke:#000000;stroke-width:2;stroke-linecap:round;stroke-linejoin:round;stroke-miterlimit:10;}
</style>
<g>
	<path id="path12_00000016036944331029664200000000875991201978897080_" class="st0" d="M49.7,158.8v2.9h10.3h10.3v-2.9l0,0
		c0-1.6-1.3-2.9-2.9-2.9h-7.3H49.7V158.8L49.7,158.8z"/>
	<path id="path12_00000105404193869761552380000004083981068512739507_" class="st0" d="M17.9,158.8L17.9,158.8c0,1.6,1.3,2.9,3,2.9
		h7.3h10.3v-2.9v-2.9H28.2H17.9V158.8L17.9,158.8z"/>
	<path id="path12_00000139259762038187996150000005243894822795114393_" class="st0" d="M44.1,183.3h3v-24.5v-21.5
		c0-1.6-1.3-2.9-3-2.9l0,0h-3v24.5v21.5C41.1,181.9,42.4,183.3,44.1,183.3L44.1,183.3L44.1,183.3z"/>
	<path id="path12_00000034079858900411352030000016965844500576448403_" class="st0" d="M78.8,129.7v2.9H89h10.3v-2.9l0,0
		c0-1.6-1.3-2.9-2.9-2.9H89H78.8V129.7L78.8,129.7z"/>
	<path id="path12_00000159462887241029582280000006771545557403958714_" class="st0" d="M47,129.7L47,129.7c0,1.6,1.3,2.9,3,2.9h7.3
		h10.3v-2.9v-2.9H57.3H47V129.7L47,129.7z"/>
	<path id="path12_00000107584654883914575730000016456102514780084146_" class="st0" d="M73.1,154.2h2.9v-24.5v-21.5
		c0-1.6-1.3-2.9-2.9-2.9l0,0h-2.9v24.5v21.5C70.2,152.9,71.5,154.2,73.1,154.2L73.1,154.2L73.1,154.2z"/>
	<g>
		<g>
			<path class="st1" d="M89.5,170.6H77.6v-8.3h33.8v8.3h-12v35.6h-9.9V170.6z"/>
			<path class="st1" d="M118.7,193.4c0.3,4.1,4.4,6.1,9,6.1c3.4,0,6.1-0.4,8.8-1.4l1.3,6.7c-3.3,1.3-7.3,2-11.6,2
				c-10.8,0-17-6.3-17-16.2c0-8.1,5.1-17.1,16.1-17.1c10.3,0,14.2,8,14.2,15.9c0,1.7-0.2,3.2-0.4,3.9L118.7,193.4L118.7,193.4z
				 M130.3,186.6c0-2.4-1.1-6.5-5.6-6.5c-4.2,0-5.9,3.8-6.2,6.5H130.3z"/>
			<path class="st1" d="M169.4,205.4c-1.8,0.8-5.1,1.5-8.9,1.5c-10.3,0-16.9-6.3-16.9-16.3c0-9.3,6.4-16.9,18.2-16.9
				c2.6,0,5.5,0.5,7.6,1.3l-1.5,7.4c-1.2-0.5-2.9-1-5.6-1c-5.2,0-8.6,3.7-8.6,8.9c0,5.9,3.9,9,8.7,9c2.4,0,4.2-0.4,5.7-1
				L169.4,205.4z"/>
			<path class="st1" d="M174.8,159.9h9.9v18.2h0.1c1-1.4,2.3-2.5,3.9-3.3c1.5-0.8,3.3-1.3,5.2-1.3c6.3,0,11.2,4.4,11.2,14v18.6h-9.9
				v-17.5c0-4.2-1.4-7.1-5.1-7.1c-2.6,0-4.3,1.7-5,3.5c-0.2,0.6-0.3,1.4-0.3,2.2v18.9h-9.9L174.8,159.9L174.8,159.9z"/>
			<path class="st1" d="M213,184.4c0-4-0.1-7.3-0.3-10.2h8.6l0.5,4.4h0.2c1.3-2.1,4.5-5.1,9.9-5.1c6.5,0,11.4,4.3,11.4,13.7v18.9
				h-9.9v-17.7c0-4.1-1.5-6.9-5-6.9c-2.7,0-4.3,1.9-5,3.7c-0.2,0.6-0.4,1.6-0.4,2.4v18.4H213L213,184.4L213,184.4z"/>
			<path class="st1" d="M261.3,165.4c0,2.8-2,4.9-5.3,4.9c-3.1,0-5.2-2.2-5.2-4.9c0-2.8,2.1-5,5.2-5
				C259.3,160.5,261.3,162.6,261.3,165.4z M251.1,206.1v-31.9h9.9v31.9H251.1z"/>
			<path class="st1" d="M266.4,200.5l10-12.6c1.8-2.1,3.2-3.7,5-5.6v-0.1h-14v-7.9h26.1l0,6l-9.6,12.1c-1.7,2.1-3.4,4.1-5.2,5.8v0.1
				h15.3v7.9h-27.7L266.4,200.5L266.4,200.5z"/>
		</g>
	</g>
	<path class="st0" d="M94.7,188.6"/>
</g>
</svg>
