<?xml version="1.0" encoding="utf-8"?>
<!-- Generator: Adobe Illustrator 27.5.0, SVG Export Plug-In . SVG Version: 6.00 Build 0)  -->
<svg version="1.1" id="Layer_1" xmlns="http://www.w3.org/2000/svg" xmlns:xlink="http://www.w3.org/1999/xlink" x="0px" y="0px"
	 viewBox="0 0 278.1 103.6" style="enable-background:new 0 0 278.1 103.6;" xml:space="preserve">
<style type="text/css">
	.st0{fill:#FFFFFF;stroke:#000000;stroke-width:2;stroke-miterlimit:10;}
	.st1{fill:#FFFFFF;stroke:#000000;stroke-width:2;stroke-linecap:round;stroke-linejoin:round;stroke-miterlimit:10;}
</style>
<g>
	<path id="path12_00000016036944331029664200000000875991201978897080_" class="st0" d="M32.8,54.5v2.9h10.3h10.3v-2.9l0,0
		c0-1.6-1.3-2.9-2.9-2.9h-7.3H32.8V54.5L32.8,54.5z"/>
	<path id="path12_00000105404193869761552380000004083981068512739507_" class="st0" d="M1,54.5L1,54.5c0,1.6,1.3,2.9,3,2.9h7.3
		h10.3v-2.9v-2.9H11.3H1V54.5L1,54.5z"/>
	<path id="path12_00000139259762038187996150000005243894822795114393_" class="st0" d="M27.2,79h3V54.5V33c0-1.6-1.3-2.9-3-2.9l0,0
		h-3v24.5v21.5C24.2,77.6,25.5,79,27.2,79L27.2,79L27.2,79z"/>
	<path id="path12_00000034079858900411352030000016965844500576448403_" class="st0" d="M61.9,25.4v2.9h10.2h10.3v-2.9l0,0
		c0-1.6-1.3-2.9-2.9-2.9h-7.4H61.9V25.4L61.9,25.4z"/>
	<path id="path12_00000159462887241029582280000006771545557403958714_" class="st0" d="M30.1,25.4L30.1,25.4c0,1.6,1.3,2.9,3,2.9
		h7.3h10.3v-2.9v-2.9H40.4H30.1V25.4L30.1,25.4z"/>
	<path id="path12_00000107584654883914575730000016456102514780084146_" class="st0" d="M56.2,49.9h2.9V25.4V3.9
		c0-1.6-1.3-2.9-2.9-2.9l0,0h-2.9v24.5V47C53.3,48.6,54.6,49.9,56.2,49.9L56.2,49.9L56.2,49.9z"/>
	<g>
		<g>
			<path class="st1" d="M72.6,66.3H60.7V58h33.8v8.3h-12v35.6h-9.9C72.6,101.9,72.6,66.3,72.6,66.3z"/>
			<path class="st1" d="M101.8,89.1c0.3,4.1,4.4,6.1,9,6.1c3.4,0,6.1-0.4,8.8-1.4l1.3,6.7c-3.3,1.3-7.3,2-11.6,2
				c-10.8,0-17-6.3-17-16.2c0-8.1,5.1-17.1,16.1-17.1c10.3,0,14.2,8,14.2,15.9c0,1.7-0.2,3.2-0.4,3.9L101.8,89.1L101.8,89.1z
				 M113.4,82.3c0-2.4-1.1-6.5-5.6-6.5c-4.2,0-5.9,3.8-6.2,6.5H113.4z"/>
			<path class="st1" d="M152.5,101.1c-1.8,0.8-5.1,1.5-8.9,1.5c-10.3,0-16.9-6.3-16.9-16.3c0-9.3,6.4-16.9,18.2-16.9
				c2.6,0,5.5,0.5,7.6,1.3l-1.5,7.4c-1.2-0.5-2.9-1-5.6-1c-5.2,0-8.6,3.7-8.6,8.9c0,5.9,3.9,9,8.7,9c2.4,0,4.2-0.4,5.7-1
				L152.5,101.1z"/>
			<path class="st1" d="M157.9,55.6h9.9v18.2h0.1c1-1.4,2.3-2.5,3.9-3.3c1.5-0.8,3.3-1.3,5.2-1.3c6.3,0,11.2,4.4,11.2,14v18.6h-9.9
				V84.3c0-4.2-1.4-7.1-5.1-7.1c-2.6,0-4.3,1.7-5,3.5c-0.2,0.6-0.3,1.4-0.3,2.2v18.9H158L157.9,55.6L157.9,55.6z"/>
			<path class="st1" d="M196.1,80.1c0-4-0.1-7.3-0.3-10.2h8.6l0.5,4.4h0.2c1.3-2.1,4.5-5.1,9.9-5.1c6.5,0,11.4,4.3,11.4,13.7v18.9
				h-9.9V84.1c0-4.1-1.5-6.9-5-6.9c-2.7,0-4.3,1.9-5,3.7c-0.2,0.6-0.4,1.6-0.4,2.4v18.4h-10V80.1L196.1,80.1z"/>
			<path class="st1" d="M244.4,61.1c0,2.8-2,4.9-5.3,4.9c-3.1,0-5.2-2.2-5.2-4.9c0-2.8,2.1-5,5.2-5
				C242.4,56.2,244.4,58.3,244.4,61.1z M234.2,101.8V69.9h9.9v31.9H234.2z"/>
			<path class="st1" d="M249.5,96.2l10-12.6c1.8-2.1,3.2-3.7,5-5.6v-0.1h-14V70h26.1v6L267,88.1c-1.7,2.1-3.4,4.1-5.2,5.8V94h15.3
				v7.9h-27.7L249.5,96.2L249.5,96.2z"/>
		</g>
	</g>
	<path class="st0" d="M77.8,84.3"/>
</g>
</svg>
