<?xml version="1.0" encoding="utf-8"?>
<!-- Generator: Adobe Illustrator 27.5.0, SVG Export Plug-In . SVG Version: 6.00 Build 0)  -->
<svg version="1.1" id="Layer_1" xmlns="http://www.w3.org/2000/svg" xmlns:xlink="http://www.w3.org/1999/xlink" x="0px" y="0px"
	 viewBox="0 0 276.2 101.6" style="enable-background:new 0 0 276.2 101.6;" xml:space="preserve">
<style type="text/css">
	.st0{fill:#172B54;}
	.st1{fill:none;stroke:#000000;stroke-width:0.5;stroke-miterlimit:10;}
</style>
<g>
	<path id="path12_00000016036944331029664200000000875991201978897080_" class="st0" d="M31.8,53.6v2.9H42h10.3v-2.9l0,0
		c0-1.6-1.3-2.9-2.9-2.9H42H31.8V53.6L31.8,53.6z"/>
	<path id="path12_00000105404193869761552380000004083981068512739507_" class="st0" d="M0,53.6L0,53.6c0,1.6,1.3,2.9,3,2.9h7.3
		h10.3v-2.9v-2.9H10.3H0V53.6L0,53.6z"/>
	<path id="path12_00000139259762038187996150000005243894822795114393_" class="st0" d="M26.1,78h3V53.6V32c0-1.6-1.3-2.9-3-2.9l0,0
		h-3v24.5v21.5C23.2,76.7,24.5,78,26.1,78L26.1,78L26.1,78z"/>
	<path id="path12_00000034079858900411352030000016965844500576448403_" class="st0" d="M60.8,24.5v2.9h10.3h10.3v-2.9l0,0
		c0-1.6-1.3-2.9-2.9-2.9h-7.3H60.8V24.5L60.8,24.5z"/>
	<path id="path12_00000159462887241029582280000006771545557403958714_" class="st0" d="M29.1,24.5L29.1,24.5c0,1.6,1.3,2.9,3,2.9
		h7.3h10.3v-2.9v-2.9H39.3H29.1V24.5L29.1,24.5z"/>
	<path id="path12_00000107584654883914575730000016456102514780084146_" class="st0" d="M55.2,49h2.9V24.5V2.9
		c0-1.6-1.3-2.9-2.9-2.9l0,0h-2.9v24.5V46C52.3,47.6,53.6,49,55.2,49L55.2,49L55.2,49z"/>
	<g>
		<g>
			<path class="st0" d="M71.5,65.4H59.7V57h33.8v8.3h-12v35.6h-9.9V65.4z"/>
			<path class="st0" d="M100.8,88.2c0.3,4.1,4.4,6.1,9,6.1c3.4,0,6.1-0.4,8.8-1.4l1.3,6.7c-3.3,1.3-7.3,2-11.6,2
				c-10.8,0-17-6.3-17-16.2c0-8.1,5.1-17.1,16.1-17.1c10.3,0,14.2,8,14.2,15.9c0,1.7-0.2,3.2-0.4,3.9L100.8,88.2L100.8,88.2z
				 M112.4,81.4c0-2.4-1.1-6.5-5.6-6.5c-4.2,0-5.9,3.8-6.2,6.5H112.4z"/>
			<path class="st0" d="M151.4,100.1c-1.8,0.8-5.1,1.5-8.9,1.5c-10.3,0-16.9-6.3-16.9-16.3c0-9.3,6.4-16.9,18.2-16.9
				c2.6,0,5.5,0.5,7.6,1.3l-1.5,7.4c-1.2-0.5-2.9-1-5.6-1c-5.2,0-8.6,3.7-8.6,8.9c0,5.9,3.9,9,8.7,9c2.4,0,4.2-0.4,5.7-1
				L151.4,100.1z"/>
			<path class="st0" d="M156.9,54.7h9.9v18.2h0.1c1-1.4,2.3-2.5,3.9-3.3c1.5-0.8,3.3-1.3,5.2-1.3c6.3,0,11.2,4.4,11.2,14v18.6h-9.9
				V83.4c0-4.2-1.4-7.1-5.1-7.1c-2.6,0-4.3,1.7-5,3.5c-0.2,0.6-0.3,1.4-0.3,2.2v18.9h-9.9L156.9,54.7L156.9,54.7z"/>
			<path class="st0" d="M195,79.2c0-4-0.1-7.3-0.3-10.2h8.6l0.5,4.4h0.2c1.3-2.1,4.5-5.1,9.9-5.1c6.5,0,11.4,4.3,11.4,13.7v18.9
				h-9.9V83.2c0-4.1-1.5-6.9-5-6.9c-2.7,0-4.3,1.9-5,3.7c-0.2,0.6-0.4,1.6-0.4,2.4v18.4h-9.9L195,79.2L195,79.2z"/>
			<path class="st0" d="M243.4,60.2c0,2.8-2,4.9-5.3,4.9c-3.1,0-5.2-2.2-5.2-4.9c0-2.8,2.1-5,5.2-5
				C241.4,55.2,243.4,57.3,243.4,60.2z M233.2,100.9V69h9.9v31.9H233.2z"/>
			<path class="st0" d="M248.5,95.2l10-12.6c1.8-2.1,3.2-3.7,5-5.6v-0.1h-14V69h26.1l0,6l-9.6,12.1c-1.7,2.1-3.4,4.1-5.2,5.8v0.1
				h15.3v7.9h-27.7L248.5,95.2L248.5,95.2z"/>
		</g>
	</g>
	<path class="st1" d="M76.8,83.4"/>
</g>
</svg>
