<?xml version="1.0" encoding="utf-8"?>
<!-- Generator: Adobe Illustrator 27.5.0, SVG Export Plug-In . SVG Version: 6.00 Build 0)  -->
<svg version="1.1" id="Layer_1" xmlns="http://www.w3.org/2000/svg" xmlns:xlink="http://www.w3.org/1999/xlink" x="0px" y="0px"
	 viewBox="0 0 216.5 46.9" style="enable-background:new 0 0 216.5 46.9;" xml:space="preserve">
<style type="text/css">
	.st0{fill:#172B54;}
</style>
<g>
	<g>
		<path class="st0" d="M11.8,10.7H0V2.3h33.8v8.3h-12v35.6h-9.9L11.8,10.7L11.8,10.7z"/>
		<path class="st0" d="M41.1,33.5c0.3,4.1,4.4,6.1,9,6.1c3.3,0,6.1-0.4,8.8-1.4l1.3,6.7c-3.3,1.3-7.3,2-11.6,2
			c-10.8,0-17-6.3-17-16.2c0-8.1,5-17.1,16.1-17.1c10.3,0,14.2,8,14.2,15.9c0,1.7-0.2,3.2-0.3,3.9L41.1,33.5L41.1,33.5z M52.7,26.7
			c0-2.4-1.1-6.5-5.6-6.5c-4.2,0-5.9,3.8-6.2,6.5H52.7z"/>
		<path class="st0" d="M91.7,45.4c-1.8,0.8-5.1,1.5-8.9,1.5C72.6,46.9,66,40.6,66,30.6c0-9.3,6.4-16.9,18.2-16.9
			c2.6,0,5.5,0.5,7.6,1.3l-1.5,7.4c-1.2-0.5-2.9-1-5.6-1c-5.2,0-8.6,3.7-8.6,8.9c0,5.9,3.9,9,8.7,9c2.4,0,4.2-0.4,5.7-1L91.7,45.4z"
			/>
		<path class="st0" d="M97.2,0h9.9v18.2h0.1c1-1.4,2.3-2.5,3.9-3.3c1.5-0.8,3.3-1.3,5.2-1.3c6.3,0,11.2,4.4,11.2,14v18.6h-9.9V28.7
			c0-4.2-1.4-7.1-5.1-7.1c-2.6,0-4.3,1.7-5,3.5c-0.2,0.6-0.3,1.4-0.3,2.2v18.9h-9.9L97.2,0L97.2,0z"/>
		<path class="st0" d="M135.3,24.5c0-4-0.1-7.3-0.3-10.2h8.6l0.5,4.4h0.2c1.3-2.1,4.5-5.1,9.9-5.1c6.5,0,11.4,4.3,11.4,13.7v18.9
			h-9.9V28.6c0-4.1-1.5-6.9-5-6.9c-2.7,0-4.3,1.9-5,3.7c-0.2,0.6-0.4,1.6-0.4,2.5v18.4h-9.9L135.3,24.5L135.3,24.5z"/>
		<path class="st0" d="M183.7,5.5c0,2.8-2,4.9-5.3,4.9c-3.1,0-5.2-2.2-5.2-4.9c0-2.8,2.1-5,5.2-5C181.7,0.6,183.7,2.7,183.7,5.5z
			 M173.5,46.2V14.4h9.9v31.9H173.5z"/>
		<path class="st0" d="M188.8,40.5l10-12.6c1.8-2.1,3.2-3.7,5.1-5.6v-0.1h-14v-7.9H216l0,6l-9.6,12.1c-1.7,2.1-3.4,4.1-5.2,5.8v0.1
			h15.3v7.9h-27.7V40.5z"/>
	</g>
</g>
</svg>
