<?xml version="1.0" encoding="utf-8"?>
<!-- Generator: Adobe Illustrator 27.5.0, SVG Export Plug-In . SVG Version: 6.00 Build 0)  -->
<svg version="1.1" id="Layer_1" xmlns="http://www.w3.org/2000/svg" xmlns:xlink="http://www.w3.org/1999/xlink" x="0px" y="0px"
	 viewBox="0 0 312.06 312.06" style="enable-background:new 0 0 312.06 312.06;" xml:space="preserve">
<style type="text/css">
	.st0{fill:#172B54;}
	.st1{fill:none;stroke:#000000;stroke-width:0.5;stroke-miterlimit:10;}
</style>
<g>
	<path id="path12_00000016036944331029664200000000875991201978897080_" class="st0" d="M49.68,158.8v2.95h10.26h10.26v-2.95v0
		c0-1.63-1.32-2.95-2.95-2.95h-7.31H49.68V158.8L49.68,158.8z"/>
	<path id="path12_00000105404193869761552380000004083981068512739507_" class="st0" d="M17.93,158.8L17.93,158.8
		c0,1.63,1.32,2.95,2.95,2.95h7.31h10.26v-2.95v-2.95H28.19H17.93V158.8L17.93,158.8z"/>
	<path id="path12_00000139259762038187996150000005243894822795114393_" class="st0" d="M44.06,183.27h2.95v-24.48v-21.53
		c0-1.63-1.32-2.95-2.95-2.95h0h-2.95v24.48v21.53C41.12,181.95,42.44,183.27,44.06,183.27L44.06,183.27L44.06,183.27z"/>
	<path id="path12_00000034079858900411352030000016965844500576448403_" class="st0" d="M78.76,129.73v2.95h10.26h10.26v-2.95l0,0
		c0-1.63-1.32-2.95-2.95-2.95h-7.31H78.76V129.73L78.76,129.73z"/>
	<path id="path12_00000159462887241029582280000006771545557403958714_" class="st0" d="M47.01,129.73L47.01,129.73
		c0,1.63,1.32,2.95,2.95,2.95h7.31h10.26v-2.95v-2.95H57.27H47.01V129.73L47.01,129.73z"/>
	<path id="path12_00000107584654883914575730000016456102514780084146_" class="st0" d="M73.14,154.19h2.95v-24.48v-21.53
		c0-1.63-1.32-2.95-2.95-2.95l0,0h-2.95v24.48v21.53C70.19,152.87,71.51,154.19,73.14,154.19L73.14,154.19L73.14,154.19z"/>
	<g>
		<g>
			<path class="st0" d="M89.47,170.59H77.62v-8.33h33.78v8.33H99.39v35.56h-9.92V170.59z"/>
			<path class="st0" d="M118.69,193.4c0.3,4.11,4.36,6.07,8.98,6.07c3.35,0,6.1-0.45,8.77-1.35l1.34,6.71
				c-3.3,1.34-7.28,2.02-11.55,2.02c-10.8,0-17-6.29-17-16.22c0-8.1,5.05-17.05,16.07-17.05c10.33,0,14.23,8.03,14.23,15.92
				c0,1.73-0.18,3.19-0.35,3.92H118.69z M130.32,186.61c0.02-2.39-1.05-6.46-5.56-6.46c-4.19,0-5.88,3.82-6.16,6.46H130.32z"/>
			<path class="st0" d="M169.35,205.35c-1.78,0.83-5.11,1.48-8.88,1.48c-10.3,0-16.86-6.3-16.86-16.31
				c0-9.32,6.38-16.94,18.22-16.94c2.62,0,5.5,0.47,7.56,1.26l-1.54,7.36c-1.2-0.53-2.94-1.01-5.55-1.01c-5.24,0-8.6,3.72-8.56,8.93
				c0,5.85,3.93,8.96,8.72,8.96c2.37,0,4.19-0.42,5.71-1.04L169.35,205.35z"/>
			<path class="st0" d="M174.8,159.91h9.92v18.2h0.13c1.04-1.4,2.31-2.46,3.88-3.29c1.47-0.8,3.32-1.26,5.16-1.26
				c6.33,0,11.17,4.38,11.17,14v18.6h-9.92v-17.51c0-4.2-1.44-7.06-5.12-7.06c-2.64,0-4.27,1.69-4.97,3.5
				c-0.25,0.59-0.32,1.45-0.32,2.17v18.91h-9.92V159.91z"/>
			<path class="st0" d="M212.97,184.45c0-3.97-0.12-7.33-0.26-10.18h8.6l0.46,4.42h0.21c1.29-2.05,4.53-5.13,9.85-5.13
				c6.51,0,11.41,4.34,11.41,13.72v18.87h-9.92v-17.67c0-4.11-1.47-6.92-5.04-6.92c-2.73,0-4.34,1.91-5.03,3.74
				c-0.25,0.62-0.35,1.56-0.35,2.45v18.39h-9.92V184.45z"/>
			<path class="st0" d="M261.34,165.42c0.01,2.76-2.03,4.95-5.33,4.95c-3.14,0-5.17-2.19-5.16-4.95c-0.01-2.83,2.07-4.96,5.25-4.96
				C259.3,160.46,261.3,162.58,261.34,165.42z M251.13,206.15v-31.88h9.92v31.88H251.13z"/>
			<path class="st0" d="M266.44,200.46l10.04-12.55c1.81-2.12,3.24-3.72,5.05-5.64v-0.14h-13.98v-7.86h26.08l-0.01,5.96l-9.61,12.07
				c-1.74,2.06-3.39,4.06-5.2,5.84v0.14h15.31v7.86h-27.69V200.46z"/>
		</g>
	</g>
	<path class="st1" d="M94.74,188.65"/>
</g>
</svg>
