<?xml version="1.0" encoding="utf-8"?>
<!-- Generator: Adobe Illustrator 27.5.0, SVG Export Plug-In . SVG Version: 6.00 Build 0)  -->
<svg version="1.1" id="Layer_1" xmlns="http://www.w3.org/2000/svg" xmlns:xlink="http://www.w3.org/1999/xlink" x="0px" y="0px"
	 viewBox="0 0 249.28 249.28" style="enable-background:new 0 0 249.28 249.28;" xml:space="preserve">
<style type="text/css">
	.st0{fill:#172B54;}
</style>
<g>
	<g>
		<path class="st0" d="M28.23,111.85H16.39v-8.33h33.78v8.33H38.16v35.56h-9.92V111.85z"/>
		<path class="st0" d="M57.45,134.66c0.3,4.11,4.36,6.07,8.98,6.07c3.35,0,6.1-0.45,8.77-1.35l1.34,6.71
			c-3.3,1.34-7.28,2.02-11.55,2.02c-10.8,0-17-6.29-17-16.22c0-8.1,5.05-17.05,16.07-17.05c10.33,0,14.23,8.03,14.23,15.92
			c0,1.73-0.18,3.19-0.35,3.92H57.45z M69.09,127.87c0.02-2.39-1.05-6.46-5.56-6.46c-4.19,0-5.88,3.82-6.16,6.46H69.09z"/>
		<path class="st0" d="M108.12,146.62c-1.78,0.83-5.11,1.48-8.88,1.48c-10.3,0-16.86-6.3-16.86-16.31c0-9.32,6.38-16.94,18.22-16.94
			c2.62,0,5.5,0.47,7.56,1.26l-1.54,7.36c-1.2-0.53-2.94-1.01-5.55-1.01c-5.24,0-8.6,3.72-8.56,8.93c0,5.85,3.93,8.96,8.72,8.96
			c2.37,0,4.19-0.42,5.71-1.04L108.12,146.62z"/>
		<path class="st0" d="M113.57,101.18h9.92v18.2h0.13c1.04-1.4,2.31-2.46,3.88-3.29c1.47-0.8,3.32-1.26,5.16-1.26
			c6.33,0,11.17,4.38,11.17,14v18.6h-9.92V129.9c0-4.2-1.44-7.06-5.12-7.06c-2.64,0-4.27,1.69-4.97,3.5
			c-0.25,0.59-0.32,1.45-0.32,2.17v18.91h-9.92V101.18z"/>
		<path class="st0" d="M151.73,125.72c0-3.97-0.12-7.33-0.26-10.18h8.6l0.46,4.42h0.21c1.29-2.05,4.53-5.13,9.85-5.13
			c6.51,0,11.41,4.34,11.41,13.72v18.87h-9.92v-17.67c0-4.11-1.47-6.92-5.04-6.92c-2.73,0-4.34,1.91-5.03,3.74
			c-0.25,0.62-0.35,1.56-0.35,2.45v18.39h-9.92V125.72z"/>
		<path class="st0" d="M200.1,106.69c0.01,2.76-2.03,4.95-5.33,4.95c-3.14,0-5.17-2.19-5.16-4.95c-0.01-2.83,2.07-4.96,5.25-4.96
			C198.06,101.73,200.06,103.85,200.1,106.69z M189.9,147.42v-31.88h9.92v31.88H189.9z"/>
		<path class="st0" d="M205.2,141.73l10.04-12.55c1.81-2.12,3.24-3.72,5.05-5.64v-0.14h-13.98v-7.86h26.08l-0.01,5.96l-9.61,12.07
			c-1.74,2.06-3.39,4.06-5.2,5.84v0.14h15.31v7.86H205.2V141.73z"/>
	</g>
</g>
</svg>
